<?xml version="1.0" standalone="no"?><!DOCTYPE svg PUBLIC "-//W3C//DTD SVG 1.1//EN" "http://www.w3.org/Graphics/SVG/1.1/DTD/svg11.dtd"><svg t="1555663501605" class="icon" style="" viewBox="0 0 1024 1024" version="1.1" xmlns="http://www.w3.org/2000/svg" p-id="1620" xmlns:xlink="http://www.w3.org/1999/xlink" width="128" height="128"><defs><style type="text/css"></style></defs><path d="M668.16 826.91072l-44.24704 0L595.0464 365.6192l31.65184 0 0-46.76608-32.70656 0-0.21504-9.17504c0.38912-3.14368 0.64512-6.31808 0.64512-9.56416L594.42176 197.28384c0-40.01792-29.65504-73.0112-68.15744-78.44864l0-5.65248c0-6.16448-4.99712-11.1616-11.17184-11.1616-6.16448 0-11.15136 4.99712-11.15136 11.1616l0 5.65248c-38.52288 5.4272-68.16768 38.43072-68.16768 78.44864l0 102.83008c0 3.25632 0.256 6.44096 0.63488 9.60512l-0.2048 9.13408-32.70656 0 0 46.76608 31.65184 0-21.1968 461.30176-29.5936 0 0 47.53408-73.32864 0 0 47.53408 444.81536 0 0-47.53408L668.16 874.45504 668.16 826.91072zM521.472 221.85984c0-15.4112 12.4928-27.904 27.91424-27.904 15.4112 0 27.904 12.4928 27.904 27.904l0 36.67968-55.808 0L521.48224 221.85984zM451.85024 559.06304l3.64544-72.27392 118.016 0 4.8128 72.27392L451.85024 559.06304zM451.85024 458.61888l3.64544-72.27392 118.016 0 4.8128 72.27392L451.85024 458.61888zM861.0816 188.64128l0 97.78176L604.37504 263.2704l0-59.1872L861.0816 188.64128zM419.61472 263.2704 162.9184 286.43328l0-97.78176 256.68608 15.44192L419.60448 263.2704z" p-id="1621" fill="#8a8a8a"></path></svg>